# This file uses centimeters as units for non-parametric coordinates.

mtllib Arrow Right.mtl
g default
v -2.092378 0.500000 0.254369
v -2.092378 -0.500000 0.254369
v 0.095166 0.500000 0.254369
v 0.095166 -0.500000 0.254369
v 0.095166 0.500000 -0.254369
v 0.095166 -0.500000 -0.254369
v -2.092378 0.500000 -0.254369
v -2.092378 -0.500000 -0.254369
v 0.092378 1.000000 0.254369
v 0.092378 -1.000000 0.254369
v 2.092378 0.000000 0.101308
v 2.092378 0.000000 -0.101308
v 0.092378 1.000000 -0.254369
v 0.092378 -1.000000 -0.254369
vt 0.375000 0.000000
vt 0.625000 0.000000
vt 0.625000 0.250000
vt 0.375000 0.250000
vt 0.625000 0.500000
vt 0.375000 0.500000
vt 0.625000 0.750000
vt 0.375000 0.750000
vt 0.625000 1.000000
vt 0.375000 1.000000
vt 0.875000 0.000000
vt 0.875000 0.250000
vt 0.125000 0.000000
vt 0.125000 0.250000
vt 0.375000 0.000000
vt 0.625000 0.000000
vt 0.500000 0.250000
vt 0.500000 0.500000
vt 0.625000 0.750000
vt 0.375000 0.750000
vt 0.625000 1.000000
vt 0.375000 1.000000
vt 0.875000 0.000000
vt 0.875000 0.250000
vt 0.125000 0.000000
vt 0.125000 0.250000
vn 0.000000 0.000000 1.000000
vn 0.000000 0.000000 1.000000
vn 0.000000 0.000000 1.000000
vn 0.000000 0.000000 1.000000
vn 1.000000 0.000000 0.000000
vn 1.000000 0.000000 0.000000
vn 1.000000 0.000000 0.000000
vn 1.000000 0.000000 0.000000
vn 0.000000 0.000000 -1.000000
vn 0.000000 0.000000 -1.000000
vn 0.000000 0.000000 -1.000000
vn 0.000000 0.000000 -1.000000
vn -1.000000 0.000000 0.000000
vn -1.000000 0.000000 0.000000
vn -1.000000 0.000000 0.000000
vn -1.000000 0.000000 0.000000
vn 0.000000 -1.000000 0.000000
vn 0.000000 -1.000000 0.000000
vn 0.000000 -1.000000 0.000000
vn 0.000000 -1.000000 0.000000
vn 0.000000 1.000000 0.000000
vn 0.000000 1.000000 0.000000
vn 0.000000 1.000000 0.000000
vn 0.000000 1.000000 0.000000
vn 0.076308 0.000000 0.997084
vn 0.076308 0.000000 0.997084
vn 0.076308 0.000000 0.997084
vn 0.076308 0.000000 -0.997084
vn 0.076308 0.000000 -0.997084
vn 0.076308 0.000000 -0.997084
vn -1.000000 0.000000 0.000000
vn -1.000000 0.000000 0.000000
vn -1.000000 0.000000 0.000000
vn -1.000000 0.000000 0.000000
vn 0.447214 -0.894427 0.000000
vn 0.447214 -0.894427 0.000000
vn 0.447214 -0.894427 0.000000
vn 0.447214 -0.894427 0.000000
vn 0.447214 0.894427 0.000000
vn 0.447214 0.894427 0.000000
vn 0.447214 0.894427 0.000000
vn 0.447214 0.894427 0.000000
s off
g Arrow_Right:pCube3
usemtl initialShadingGroup
f 1/1/1 2/2/2 4/3/3 3/4/4
f 3/4/5 4/3/6 6/5/7 5/6/8
f 5/6/9 6/5/10 8/7/11 7/8/12
f 7/8/13 8/7/14 2/9/15 1/10/16
f 2/2/17 8/11/18 6/12/19 4/3/20
f 7/13/21 1/1/22 3/4/23 5/14/24
f 9/15/25 10/16/26 11/17/27
f 12/18/28 14/19/29 13/20/30
f 13/20/31 14/19/32 10/21/33 9/22/34
f 10/16/35 14/23/36 12/24/37 11/17/38
f 13/25/39 9/15/40 11/17/41 12/26/42
