# This file uses centimeters as units for non-parametric coordinates.

mtllib Item_HPup2.mtl
g default
v -0.288379 -0.247607 0.166963
v -0.247607 -0.287609 0.167733
v -0.206728 -0.276512 0.207735
v -0.216006 -0.216006 0.207735
v -0.276512 -0.206728 0.207735
v 0.276512 -0.206728 0.207735
v 0.216006 -0.216006 0.207735
v 0.206728 -0.276512 0.207735
v 0.247607 -0.288379 0.166963
v 0.288379 -0.247607 0.166963
v -0.276512 0.206728 0.207735
v -0.216006 0.216006 0.207735
v -0.206728 0.276512 0.207735
v -0.247607 0.288379 0.166963
v -0.288379 0.247607 0.166963
v 0.288379 0.247607 0.166963
v 0.247607 0.287609 0.167733
v 0.206728 0.276512 0.207735
v 0.216006 0.216006 0.207735
v 0.276512 0.206728 0.207735
v -0.288379 0.247607 -0.166963
v -0.247607 0.287609 -0.167733
v -0.206728 0.276512 -0.207735
v -0.216006 0.216006 -0.207735
v -0.276512 0.206728 -0.207735
v 0.276512 0.206728 -0.207735
v 0.216006 0.216006 -0.207735
v 0.206728 0.276512 -0.207735
v 0.247607 0.288379 -0.166963
v 0.288379 0.247607 -0.166963
v -0.276512 -0.206728 -0.207735
v -0.216006 -0.216006 -0.207735
v -0.206728 -0.276512 -0.207735
v -0.247607 -0.288379 -0.166963
v -0.288379 -0.247607 -0.166963
v 0.288379 -0.247607 -0.166963
v 0.247607 -0.287609 -0.167733
v 0.206728 -0.276512 -0.207735
v 0.216006 -0.216006 -0.207735
v 0.276512 -0.206728 -0.207735
v -0.247607 1.006064 0.166192
v -0.206064 1.006064 0.207735
v -0.206064 1.047607 0.166192
v 0.206064 1.047607 0.166192
v 0.206064 1.006064 0.207735
v 0.247607 1.006064 0.166192
v 0.206064 1.047607 -0.166192
v 0.247607 1.006064 -0.166192
v 0.206064 1.006064 -0.207735
v -0.206064 1.047607 -0.166192
v -0.206064 1.006064 -0.207735
v -0.247607 1.006064 -0.166192
v -0.247607 -1.006064 -0.166192
v -0.206064 -1.006064 -0.207735
v -0.206064 -1.047607 -0.166192
v 0.206064 -1.047607 -0.166192
v 0.206064 -1.006064 -0.207735
v 0.247607 -1.006064 -0.166192
v 0.206064 -1.047607 0.166192
v 0.247607 -1.006064 0.166192
v 0.206064 -1.006064 0.207735
v -0.206064 -1.047607 0.166192
v -0.206064 -1.006064 0.207735
v -0.247607 -1.006064 0.166192
v 1.047607 -0.206064 -0.166192
v 1.006064 -0.247607 -0.166192
v 1.006064 -0.206064 -0.207735
v 1.006064 -0.206064 0.207735
v 1.006064 -0.247607 0.166192
v 1.047607 -0.206064 0.166192
v 1.047607 0.206064 -0.166192
v 1.006064 0.206064 -0.207735
v 1.006064 0.247607 -0.166192
v 1.047607 0.206064 0.166192
v 1.006064 0.247607 0.166192
v 1.006064 0.206064 0.207735
v -1.006064 -0.206064 -0.207735
v -1.006064 -0.247607 -0.166192
v -1.047607 -0.206064 -0.166192
v -1.047607 -0.206064 0.166192
v -1.006064 -0.247607 0.166192
v -1.006064 -0.206064 0.207735
v -1.047607 0.206064 0.166192
v -1.006064 0.206064 0.207735
v -1.006064 0.247607 0.166192
v -1.047607 0.206064 -0.166192
v -1.006064 0.247607 -0.166192
v -1.006064 0.206064 -0.207735
vt 0.270883 0.099978
vt 0.271470 0.100472
vt 0.271470 0.100480
vt 0.270872 0.099978
vt 0.271470 0.123322
vt 0.271470 0.123311
vt 0.271470 0.118505
vt 0.271470 0.118505
vt 0.271963 0.123898
vt 0.271470 0.123300
vt 0.271971 0.123898
vt 0.271851 0.100360
vt 0.271936 0.099978
vt 0.276653 0.099978
vt 0.277068 0.100360
vt 0.271851 0.105576
vt 0.271470 0.105464
vt 0.277450 0.100472
vt 0.278036 0.099978
vt 0.278048 0.099978
vt 0.277450 0.100480
vt 0.277450 0.105464
vt 0.277068 0.105576
vt 0.277450 0.123311
vt 0.276956 0.123898
vt 0.276948 0.123898
vt 0.277450 0.123300
vt 0.277450 0.123311
vt 0.277450 0.118494
vt 0.277450 0.118505
vt 0.270883 0.105958
vt 0.270872 0.105958
vt 0.271470 0.105456
vt 0.271963 0.105958
vt 0.276956 0.105958
vt 0.271470 0.106545
vt 0.271971 0.105958
vt 0.271470 0.106556
vt 0.271470 0.106545
vt 0.271470 0.111362
vt 0.271470 0.111351
vt 0.278036 0.105958
vt 0.277450 0.105456
vt 0.278048 0.105958
vt 0.277450 0.106534
vt 0.277450 0.106545
vt 0.277450 0.111351
vt 0.277450 0.111351
vt 0.277450 0.106556
vt 0.276948 0.105958
vt 0.266077 0.105958
vt 0.265490 0.105464
vt 0.265490 0.105456
vt 0.266088 0.105958
vt 0.271963 0.111938
vt 0.271470 0.111340
vt 0.271971 0.111938
vt 0.271851 0.112319
vt 0.276956 0.111938
vt 0.277068 0.112319
vt 0.271470 0.112404
vt 0.271851 0.117536
vt 0.271470 0.117122
vt 0.283430 0.105464
vt 0.282843 0.105958
vt 0.282832 0.105958
vt 0.283430 0.105456
vt 0.277450 0.112734
vt 0.277450 0.117451
vt 0.277068 0.117536
vt 0.276948 0.111938
vt 0.277450 0.111340
vt 0.265490 0.100472
vt 0.266077 0.099978
vt 0.266088 0.099978
vt 0.265490 0.100480
vt 0.271963 0.117918
vt 0.276956 0.117918
vt 0.271971 0.117918
vt 0.271470 0.118516
vt 0.282843 0.099978
vt 0.283430 0.100472
vt 0.283430 0.100480
vt 0.282832 0.099978
vt 0.277450 0.118516
vt 0.276948 0.117918
vt 0.271971 0.106556
vt 0.271971 0.111340
vt 0.276948 0.106556
vt 0.276948 0.111340
vt 0.271971 0.118516
vt 0.271971 0.123300
vt 0.276948 0.118516
vt 0.276948 0.123300
vt 0.282832 0.100480
vt 0.282832 0.105456
vt 0.278048 0.100480
vt 0.278048 0.105456
vt 0.266088 0.100480
vt 0.266088 0.105456
vt 0.270872 0.100480
vt 0.270872 0.105456
vt 0.271470 0.099978
vt 0.277450 0.099978
vt 0.271470 0.111938
vt 0.277450 0.111938
vt 0.271470 0.117918
vt 0.277450 0.117918
vn -0.051097 -0.677413 0.733826
vn -0.056811 -0.673922 0.736615
vn -0.000701 -0.706600 0.707613
vn -0.000701 -0.706600 0.707613
vn -0.703746 -0.710451 0.000819
vn -0.703746 -0.710451 0.000819
vn -0.703746 -0.710451 0.000819
vn -0.703746 -0.710451 0.000819
vn -0.671251 -0.056469 0.739076
vn -0.673437 -0.052866 0.737352
vn -0.703243 -0.001079 0.710949
vn -0.703243 -0.001079 0.710949
vn 0.000000 0.000000 1.000000
vn 0.000000 0.000000 1.000000
vn 0.000000 0.000000 1.000000
vn 0.000000 0.000000 1.000000
vn 0.000000 0.000000 1.000000
vn 0.000000 0.000000 1.000000
vn 0.000000 0.000000 1.000000
vn 0.000000 0.000000 1.000000
vn 0.057422 -0.673935 0.736556
vn 0.052038 -0.677191 0.733965
vn 0.000701 -0.706600 0.707613
vn 0.000701 -0.706600 0.707613
vn 0.000000 0.000000 1.000000
vn 0.000000 0.000000 1.000000
vn 0.000000 0.000000 1.000000
vn 0.000000 0.000000 1.000000
vn 0.677191 -0.052038 0.733965
vn 0.673935 -0.057422 0.736556
vn 0.706600 -0.000701 0.707613
vn 0.706600 -0.000701 0.707613
vn 0.703746 -0.710451 -0.000819
vn 0.703746 -0.710451 -0.000819
vn 0.703746 -0.710451 -0.000819
vn 0.703746 -0.710451 -0.000819
vn -0.057422 0.673935 0.736556
vn -0.052038 0.677191 0.733965
vn -0.000701 0.706600 0.707613
vn -0.000701 0.706600 0.707613
vn 0.000000 0.000000 1.000000
vn 0.000000 0.000000 1.000000
vn 0.000000 0.000000 1.000000
vn 0.000000 0.000000 1.000000
vn -0.677191 0.052038 0.733965
vn -0.673935 0.057422 0.736556
vn -0.706600 0.000701 0.707613
vn -0.706600 0.000701 0.707613
vn -0.703746 0.710451 -0.000819
vn -0.703746 0.710451 -0.000819
vn -0.703746 0.710451 -0.000819
vn -0.703746 0.710451 -0.000819
vn 0.051097 0.677413 0.733826
vn 0.056811 0.673922 0.736615
vn 0.000701 0.706600 0.707613
vn 0.000701 0.706600 0.707613
vn 0.703746 0.710451 0.000819
vn 0.703746 0.710451 0.000819
vn 0.703746 0.710451 0.000819
vn 0.703746 0.710451 0.000819
vn 0.671251 0.056469 0.739076
vn 0.673437 0.052866 0.737352
vn 0.703243 0.001079 0.710949
vn 0.703243 0.001079 0.710949
vn -0.051097 0.677413 -0.733826
vn -0.056811 0.673922 -0.736615
vn -0.000701 0.706600 -0.707613
vn -0.000701 0.706600 -0.707613
vn -0.671251 0.056469 -0.739076
vn -0.673437 0.052866 -0.737352
vn -0.703243 0.001079 -0.710949
vn -0.703243 0.001079 -0.710949
vn 0.000000 0.000000 -1.000000
vn 0.000000 0.000000 -1.000000
vn 0.000000 0.000000 -1.000000
vn 0.000000 0.000000 -1.000000
vn -0.000000 0.000000 -1.000000
vn 0.000000 0.000000 -1.000000
vn 0.000000 0.000000 -1.000000
vn -0.000000 0.000000 -1.000000
vn 0.057422 0.673935 -0.736556
vn 0.052038 0.677191 -0.733965
vn 0.000701 0.706600 -0.707613
vn 0.000701 0.706600 -0.707613
vn 0.000000 0.000000 -1.000000
vn 0.000000 0.000000 -1.000000
vn 0.000000 0.000000 -1.000000
vn 0.000000 0.000000 -1.000000
vn 0.677191 0.052038 -0.733965
vn 0.673935 0.057422 -0.736556
vn 0.706600 0.000701 -0.707613
vn 0.706600 0.000701 -0.707613
vn -0.057422 -0.673935 -0.736556
vn -0.052038 -0.677191 -0.733965
vn -0.000701 -0.706600 -0.707613
vn -0.000701 -0.706600 -0.707613
vn 0.000000 0.000000 -1.000000
vn 0.000000 0.000000 -1.000000
vn 0.000000 0.000000 -1.000000
vn 0.000000 0.000000 -1.000000
vn -0.677191 -0.052038 -0.733965
vn -0.673935 -0.057422 -0.736556
vn -0.706600 -0.000701 -0.707613
vn -0.706600 -0.000701 -0.707613
vn 0.051097 -0.677413 -0.733826
vn 0.056811 -0.673922 -0.736615
vn 0.000701 -0.706600 -0.707613
vn 0.000701 -0.706600 -0.707613
vn 0.671251 -0.056469 -0.739076
vn 0.673437 -0.052866 -0.737352
vn 0.703243 -0.001079 -0.710949
vn 0.703243 -0.001079 -0.710949
vn -0.707105 0.707109 0.000000
vn -0.707105 0.707109 0.000000
vn -0.707105 0.707109 0.000000
vn -0.707105 0.707109 0.000000
vn 0.000000 0.707109 0.707104
vn 0.000000 0.707109 0.707104
vn 0.000000 0.707109 0.707104
vn 0.000000 0.707109 0.707104
vn 0.707105 0.707109 0.000000
vn 0.707105 0.707109 0.000000
vn 0.707105 0.707109 0.000000
vn 0.707105 0.707109 0.000000
vn 0.000000 0.707109 -0.707104
vn 0.000000 0.707109 -0.707104
vn 0.000000 0.707109 -0.707104
vn 0.000000 0.707109 -0.707104
vn -0.707105 -0.707109 0.000000
vn -0.707105 -0.707109 0.000000
vn -0.707105 -0.707109 0.000000
vn -0.707105 -0.707109 0.000000
vn 0.000000 -0.707109 -0.707104
vn 0.000000 -0.707109 -0.707104
vn 0.000000 -0.707109 -0.707104
vn 0.000000 -0.707109 -0.707104
vn 0.707105 -0.707109 0.000000
vn 0.707105 -0.707109 0.000000
vn 0.707105 -0.707109 0.000000
vn 0.707105 -0.707109 0.000000
vn 0.000000 -0.707109 0.707104
vn 0.000000 -0.707109 0.707104
vn 0.000000 -0.707109 0.707104
vn 0.000000 -0.707109 0.707104
vn 0.707109 0.000000 -0.707105
vn 0.707109 0.000000 -0.707105
vn 0.707109 0.000000 -0.707105
vn 0.707109 0.000000 -0.707105
vn 0.707109 -0.707105 0.000000
vn 0.707109 -0.707105 0.000000
vn 0.707109 -0.707105 0.000000
vn 0.707109 -0.707105 0.000000
vn 0.707109 0.000000 0.707105
vn 0.707109 0.000000 0.707105
vn 0.707109 0.000000 0.707105
vn 0.707109 0.000000 0.707105
vn 0.707109 0.707105 0.000000
vn 0.707109 0.707105 0.000000
vn 0.707109 0.707105 0.000000
vn 0.707109 0.707105 0.000000
vn -0.707109 0.000000 -0.707105
vn -0.707109 0.000000 -0.707105
vn -0.707109 0.000000 -0.707105
vn -0.707109 0.000000 -0.707105
vn -0.707109 -0.707105 0.000000
vn -0.707109 -0.707105 0.000000
vn -0.707109 -0.707105 0.000000
vn -0.707109 -0.707105 0.000000
vn -0.707109 0.000000 0.707105
vn -0.707109 0.000000 0.707105
vn -0.707109 0.000000 0.707105
vn -0.707109 0.000000 0.707105
vn -0.707109 0.707105 0.000000
vn -0.707109 0.707105 0.000000
vn -0.707109 0.707105 0.000000
vn -0.707109 0.707105 0.000000
vn 0.000000 0.000000 1.000000
vn 0.000000 0.000000 1.000000
vn 0.000000 0.000000 1.000000
vn 0.000000 0.000000 1.000000
vn 0.000000 1.000000 0.000000
vn 0.000000 1.000000 0.000000
vn 0.000000 1.000000 0.000000
vn 0.000000 1.000000 0.000000
vn 0.000000 0.000000 -1.000000
vn 0.000000 0.000000 -1.000000
vn 0.000000 0.000000 -1.000000
vn 0.000000 0.000000 -1.000000
vn 0.000000 -1.000000 0.000000
vn 0.000000 -1.000000 0.000000
vn 0.000000 -1.000000 0.000000
vn 0.000000 -1.000000 0.000000
vn 1.000000 0.000000 0.000000
vn 1.000000 0.000000 0.000000
vn 1.000000 0.000000 0.000000
vn 1.000000 0.000000 0.000000
vn -1.000000 0.000000 0.000000
vn -1.000000 0.000000 0.000000
vn -1.000000 0.000000 0.000000
vn -1.000000 0.000000 0.000000
vn 0.000000 0.000000 1.000000
vn 0.000000 0.000000 1.000000
vn 0.000000 0.000000 1.000000
vn 0.000000 0.000000 1.000000
vn 1.000000 -0.000000 0.000000
vn 1.000000 -0.000000 0.000000
vn 1.000000 -0.000000 0.000000
vn 1.000000 -0.000000 0.000000
vn 0.000000 0.000000 -1.000000
vn 0.000000 0.000000 -1.000000
vn 0.000000 0.000000 -1.000000
vn 0.000000 0.000000 -1.000000
vn -1.000000 0.000000 0.000000
vn -1.000000 0.000000 0.000000
vn -1.000000 0.000000 0.000000
vn -1.000000 0.000000 0.000000
vn 0.000000 0.000000 -1.000000
vn 0.000000 0.000000 -1.000000
vn 0.000000 0.000000 -1.000000
vn 0.000000 0.000000 -1.000000
vn 1.000000 0.000000 0.000000
vn 1.000000 0.000000 0.000000
vn 1.000000 0.000000 0.000000
vn 1.000000 0.000000 0.000000
vn 0.000000 0.000000 1.000000
vn 0.000000 0.000000 1.000000
vn 0.000000 0.000000 1.000000
vn 0.000000 0.000000 1.000000
vn -1.000000 0.000000 0.000000
vn -1.000000 0.000000 0.000000
vn -1.000000 0.000000 0.000000
vn -1.000000 0.000000 0.000000
vn 0.000000 -1.000000 0.000000
vn 0.000000 -1.000000 0.000000
vn 0.000000 -1.000000 0.000000
vn 0.000000 -1.000000 0.000000
vn 0.000000 0.000000 -1.000000
vn 0.000000 0.000000 -1.000000
vn 0.000000 0.000000 -1.000000
vn 0.000000 0.000000 -1.000000
vn 0.000000 1.000000 0.000000
vn 0.000000 1.000000 0.000000
vn 0.000000 1.000000 0.000000
vn 0.000000 1.000000 0.000000
vn 0.000000 0.000000 1.000000
vn 0.000000 0.000000 1.000000
vn 0.000000 0.000000 1.000000
vn 0.000000 0.000000 1.000000
vn 0.000000 -1.000000 0.000000
vn 0.000000 -1.000000 0.000000
vn 0.000000 -1.000000 0.000000
vn 0.000000 -1.000000 0.000000
vn 0.000000 0.000000 1.000000
vn 0.000000 0.000000 1.000000
vn 0.000000 0.000000 1.000000
vn 0.000000 0.000000 1.000000
vn 0.000000 1.000000 0.000000
vn 0.000000 1.000000 0.000000
vn 0.000000 1.000000 0.000000
vn 0.000000 1.000000 0.000000
vn -0.000000 0.000000 -1.000000
vn -0.000000 0.000000 -1.000000
vn -0.000000 0.000000 -1.000000
vn -0.000000 0.000000 -1.000000
vn -0.051097 -0.677413 0.733826
vn -0.673437 -0.052866 0.737352
vn -0.671251 -0.056469 0.739076
vn -0.395393 -0.394575 0.829443
vn -0.056811 -0.673922 0.736615
vn 0.057422 -0.673935 0.736556
vn 0.396698 -0.396698 0.827805
vn 0.673935 -0.057422 0.736556
vn 0.677191 -0.052038 0.733965
vn 0.052038 -0.677191 0.733965
vn -0.057422 0.673935 0.736556
vn -0.396698 0.396698 0.827805
vn -0.673935 0.057422 0.736556
vn -0.677191 0.052038 0.733965
vn -0.052038 0.677191 0.733965
vn 0.051097 0.677413 0.733826
vn 0.673437 0.052866 0.737352
vn 0.671251 0.056469 0.739076
vn 0.395393 0.394575 0.829443
vn 0.056811 0.673922 0.736615
vn -0.051097 0.677413 -0.733826
vn -0.673437 0.052866 -0.737352
vn -0.671251 0.056469 -0.739076
vn -0.395393 0.394575 -0.829443
vn -0.056811 0.673922 -0.736615
vn 0.057422 0.673935 -0.736556
vn 0.396698 0.396698 -0.827805
vn 0.673935 0.057422 -0.736556
vn 0.677191 0.052038 -0.733965
vn 0.052038 0.677191 -0.733965
vn -0.057422 -0.673935 -0.736556
vn -0.396698 -0.396698 -0.827805
vn -0.673935 -0.057422 -0.736556
vn -0.677191 -0.052038 -0.733965
vn -0.052038 -0.677191 -0.733965
vn 0.051097 -0.677413 -0.733826
vn 0.673437 -0.052866 -0.737352
vn 0.671251 -0.056469 -0.739076
vn 0.395393 -0.394575 -0.829443
vn 0.056811 -0.673922 -0.736615
vn -0.577349 0.577353 0.577349
vn -0.577349 0.577353 0.577349
vn -0.577349 0.577353 0.577349
vn 0.577349 0.577353 0.577349
vn 0.577349 0.577353 0.577349
vn 0.577349 0.577353 0.577349
vn 0.577349 0.577353 -0.577349
vn 0.577349 0.577353 -0.577349
vn 0.577349 0.577353 -0.577349
vn -0.577349 0.577353 -0.577349
vn -0.577349 0.577353 -0.577349
vn -0.577349 0.577353 -0.577349
vn -0.577349 -0.577353 -0.577349
vn -0.577349 -0.577353 -0.577349
vn -0.577349 -0.577353 -0.577349
vn 0.577349 -0.577353 -0.577349
vn 0.577349 -0.577353 -0.577349
vn 0.577349 -0.577353 -0.577349
vn 0.577349 -0.577353 0.577349
vn 0.577349 -0.577353 0.577349
vn 0.577349 -0.577353 0.577349
vn -0.577349 -0.577353 0.577349
vn -0.577349 -0.577353 0.577349
vn -0.577349 -0.577353 0.577349
vn 0.577352 -0.577349 -0.577350
vn 0.577352 -0.577349 -0.577350
vn 0.577352 -0.577349 -0.577350
vn 0.577352 -0.577349 0.577350
vn 0.577352 -0.577349 0.577350
vn 0.577352 -0.577349 0.577350
vn 0.577352 0.577349 -0.577350
vn 0.577352 0.577349 -0.577350
vn 0.577352 0.577349 -0.577350
vn 0.577352 0.577349 0.577350
vn 0.577352 0.577349 0.577350
vn 0.577352 0.577349 0.577350
vn -0.577352 -0.577349 -0.577350
vn -0.577352 -0.577349 -0.577350
vn -0.577352 -0.577349 -0.577350
vn -0.577352 -0.577349 0.577350
vn -0.577352 -0.577349 0.577350
vn -0.577352 -0.577349 0.577350
vn -0.577352 0.577349 0.577350
vn -0.577352 0.577349 0.577350
vn -0.577352 0.577349 0.577350
vn -0.577352 0.577349 -0.577350
vn -0.577352 0.577349 -0.577350
vn -0.577352 0.577349 -0.577350
s off
g Item_HPup2_Mesh
usemtl Item_HPup2_Item_HPup2_Item_HPup2_initialShadingGroup
f 1/1/1 5/2/2 82/3/3 81/4/4
f 2/5/5 1/6/6 35/7/7 34/8/8
f 3/9/9 2/5/10 64/10/11 63/11/12
f 4/12/13 3/13/14 8/14/15 7/15/16
f 5/2/17 4/12/18 12/16/19 11/17/20
f 6/18/21 10/19/22 69/20/23 68/21/24
f 7/15/25 6/18/26 20/22/27 19/23/28
f 9/24/29 8/25/30 61/26/31 60/27/32
f 10/28/33 9/24/34 37/29/35 36/30/36
f 11/17/37 15/31/38 85/32/39 84/33/40
f 13/34/41 12/16/42 19/23/43 18/35/44
f 14/36/45 13/34/46 42/37/47 41/38/48
f 15/39/49 14/36/50 22/40/51 21/41/52
f 16/42/53 20/22/54 76/43/55 75/44/56
f 17/45/57 16/46/58 30/47/59 29/48/60
f 18/35/61 17/45/62 46/49/63 45/50/64
f 21/51/65 25/52/66 88/53/67 87/54/68
f 23/55/69 22/40/70 52/56/71 51/57/72
f 24/58/73 23/55/74 28/59/75 27/60/76
f 25/61/77 24/58/78 32/62/79 31/63/80
f 26/64/81 30/65/82 73/66/83 72/67/84
f 27/60/85 26/68/86 40/69/87 39/70/88
f 29/48/89 28/59/90 49/71/91 48/72/92
f 31/73/93 35/74/94 78/75/95 77/76/96
f 33/77/97 32/62/98 39/70/99 38/78/100
f 34/8/101 33/77/102 54/79/103 53/80/104
f 36/81/105 40/82/106 67/83/107 66/84/108
f 38/78/109 37/29/110 58/85/111 57/86/112
f 41/38/113 43/87/114 50/88/115 52/56/116
f 43/87/117 42/37/118 45/50/119 44/89/120
f 44/89/121 46/49/122 48/72/123 47/90/124
f 47/90/125 49/71/126 51/57/127 50/88/128
f 53/80/129 55/91/130 62/92/131 64/10/132
f 55/91/133 54/79/134 57/86/135 56/93/136
f 56/93/137 58/85/138 60/27/139 59/94/140
f 59/94/141 61/26/142 63/11/143 62/92/144
f 65/95/145 67/83/146 72/67/147 71/96/148
f 66/84/149 65/95/150 70/97/151 69/20/152
f 68/21/153 70/97/154 74/98/155 76/43/156
f 71/96/157 73/66/158 75/44/159 74/98/160
f 77/76/161 79/99/162 86/100/163 88/53/164
f 79/99/165 78/75/166 81/4/167 80/101/168
f 80/101/169 82/3/170 84/33/171 83/102/172
f 83/102/173 85/32/174 87/54/175 86/100/176
f 4/12/177 7/15/178 19/23/179 12/16/180
f 43/87/181 44/89/182 47/90/183 50/88/184
f 24/58/185 27/60/186 39/70/187 32/62/188
f 55/91/189 56/93/190 59/94/191 62/92/192
f 70/97/193 65/95/194 71/96/195 74/98/196
f 79/99/197 80/101/198 83/102/199 86/100/200
f 13/34/201 18/35/202 45/50/203 42/37/204
f 17/45/205 29/48/206 48/72/207 46/49/208
f 28/59/209 23/55/210 51/57/211 49/71/212
f 22/40/213 14/36/214 41/38/215 52/56/216
f 33/77/217 38/78/218 57/86/219 54/79/220
f 37/29/221 9/24/222 60/27/223 58/85/224
f 8/25/225 3/9/226 63/11/227 61/26/228
f 2/5/229 34/8/230 53/80/231 64/10/232
f 10/19/233 36/81/234 66/84/235 69/20/236
f 40/82/237 26/64/238 72/67/239 67/83/240
f 30/65/241 16/42/242 75/44/243 73/66/244
f 20/22/245 6/18/246 68/21/247 76/43/248
f 35/74/249 1/1/250 81/4/251 78/75/252
f 5/2/253 11/17/254 84/33/255 82/3/256
f 15/31/257 21/51/258 87/54/259 85/32/260
f 25/52/261 31/73/262 77/76/263 88/53/264
f 1/1/265 2/103/266 3/13/267 4/12/268 5/2/269
f 6/18/270 7/15/271 8/14/272 9/104/273 10/19/274
f 11/17/275 12/16/276 13/34/277 14/36/278 15/31/279
f 16/42/280 17/45/281 18/35/282 19/23/283 20/22/284
f 21/105/285 22/40/286 23/55/287 24/58/288 25/61/289
f 26/68/290 27/60/291 28/59/292 29/48/293 30/106/294
f 31/63/295 32/62/296 33/77/297 34/8/298 35/107/299
f 36/108/300 37/29/301 38/78/302 39/70/303 40/69/304
f 41/38/305 42/37/306 43/87/307
f 44/89/308 45/50/309 46/49/310
f 47/90/311 48/72/312 49/71/313
f 50/88/314 51/57/315 52/56/316
f 53/80/317 54/79/318 55/91/319
f 56/93/320 57/86/321 58/85/322
f 59/94/323 60/27/324 61/26/325
f 62/92/326 63/11/327 64/10/328
f 65/95/329 66/84/330 67/83/331
f 68/21/332 69/20/333 70/97/334
f 71/96/335 72/67/336 73/66/337
f 74/98/338 75/44/339 76/43/340
f 77/76/341 78/75/342 79/99/343
f 80/101/344 81/4/345 82/3/346
f 83/102/347 84/33/348 85/32/349
f 86/100/350 87/54/351 88/53/352
