# This file uses centimeters as units for non-parametric coordinates.

mtllib SnowCreate_.mtl
g default
v 0.137153 -0.020895 0.026727
v 0.110736 -0.020895 -0.014475
v 0.072879 -0.020895 -0.045497
v 0.027290 -0.020895 -0.063303
v -0.021571 -0.020895 -0.066149
v -0.068920 -0.020895 -0.053757
v -0.110122 -0.020895 -0.027340
v -0.141144 -0.020895 0.010517
v -0.158950 -0.020895 0.056106
v -0.161796 -0.020895 0.104967
v -0.149404 -0.020895 0.152316
v -0.122987 -0.020895 0.193518
v -0.085130 -0.020895 0.224540
v -0.039541 -0.020895 0.242346
v 0.009320 -0.020895 0.245192
v 0.056669 -0.020895 0.232800
v 0.097871 -0.020895 0.206382
v 0.128893 -0.020895 0.168526
v 0.146699 -0.020895 0.122937
v 0.149545 -0.020895 0.074076
v 0.276903 -0.013412 -0.034521
v 0.224719 -0.013412 -0.115911
v 0.149939 -0.013412 -0.177191
v 0.059882 -0.013412 -0.212364
v -0.036636 -0.013412 -0.217986
v -0.130168 -0.013412 -0.193507
v -0.211557 -0.013412 -0.141323
v -0.272838 -0.013412 -0.066543
v -0.308011 -0.013412 0.023514
v -0.313633 -0.013412 0.120032
v -0.289154 -0.013412 0.213564
v -0.236970 -0.013412 0.294953
v -0.162190 -0.013412 0.356234
v -0.072133 -0.013412 0.391406
v 0.024385 -0.013412 0.397029
v 0.117917 -0.013412 0.372550
v 0.199307 -0.013412 0.320366
v 0.260587 -0.013412 0.245586
v 0.295760 -0.013412 0.155529
v 0.301382 -0.013412 0.059010
v 0.409684 -0.001150 -0.092715
v 0.333019 -0.001150 -0.212288
v 0.223156 -0.001150 -0.302318
v 0.090849 -0.001150 -0.353991
v -0.050950 -0.001150 -0.362251
v -0.188362 -0.001150 -0.326288
v -0.307935 -0.001150 -0.249623
v -0.397964 -0.001150 -0.139759
v -0.449638 -0.001150 -0.007452
v -0.457898 -0.001150 0.134347
v -0.421935 -0.001150 0.271758
v -0.345270 -0.001150 0.391331
v -0.235406 -0.001150 0.481360
v -0.103100 -0.001150 0.533034
v 0.038699 -0.001150 0.541294
v 0.176111 -0.001150 0.505331
v 0.295684 -0.001150 0.428665
v 0.385713 -0.001150 0.318802
v 0.437387 -0.001150 0.186496
v 0.445647 -0.001150 0.044697
v 0.532227 0.015593 -0.146422
v 0.432967 0.015593 -0.301234
v 0.290726 0.015593 -0.417796
v 0.119428 0.015593 -0.484699
v -0.064161 0.015593 -0.495392
v -0.242068 0.015593 -0.448830
v -0.396881 0.015593 -0.349571
v -0.513443 0.015593 -0.207331
v -0.580345 0.015593 -0.036032
v -0.591039 0.015593 0.147557
v -0.544477 0.015593 0.325465
v -0.445218 0.015593 0.480276
v -0.302977 0.015593 0.596838
v -0.131679 0.015593 0.663741
v 0.051910 0.015593 0.674434
v 0.229817 0.015593 0.627873
v 0.384629 0.015593 0.528614
v 0.501192 0.015593 0.386373
v 0.568094 0.015593 0.215075
v 0.578787 0.015593 0.031486
v 0.641513 0.036405 -0.194318
v 0.522104 0.036405 -0.380558
v 0.350988 0.036405 -0.520782
v 0.144915 0.036405 -0.601266
v -0.075942 0.036405 -0.614131
v -0.289965 0.036405 -0.558117
v -0.476204 0.036405 -0.438708
v -0.616429 0.036405 -0.267592
v -0.696913 0.036405 -0.061520
v -0.709777 0.036405 0.159339
v -0.653764 0.036405 0.373361
v -0.534355 0.036405 0.559601
v -0.363239 0.036405 0.699825
v -0.157166 0.036405 0.780308
v 0.063691 0.036405 0.793173
v 0.277714 0.036405 0.737160
v 0.463953 0.036405 0.617750
v 0.604178 0.036405 0.446635
v 0.684661 0.036405 0.240562
v 0.697526 0.036405 0.019705
v 0.734853 0.060773 -0.235227
v 0.598234 0.060773 -0.448307
v 0.402456 0.060773 -0.608741
v 0.166684 0.060773 -0.700824
v -0.086004 0.060773 -0.715543
v -0.330873 0.060773 -0.651457
v -0.543954 0.060773 -0.514838
v -0.704388 0.060773 -0.319060
v -0.796470 0.060773 -0.083288
v -0.811190 0.060773 0.169400
v -0.747103 0.060773 0.414268
v -0.610484 0.060773 0.627350
v -0.414707 0.060773 0.787784
v -0.178935 0.060773 0.879867
v 0.073753 0.060773 0.894585
v 0.318622 0.060773 0.830499
v 0.531703 0.060773 0.693880
v 0.692136 0.060773 0.498103
v 0.784220 0.060773 0.262331
v 0.798938 0.060773 0.009643
v 0.809946 0.088094 -0.268137
v 0.659482 0.088094 -0.502813
v 0.443864 0.088094 -0.679506
v 0.184197 0.088094 -0.780921
v -0.094099 0.088094 -0.797132
v -0.363785 0.088094 -0.726550
v -0.598460 0.088094 -0.576086
v -0.775153 0.088094 -0.360468
v -0.876568 0.088094 -0.100801
v -0.892779 0.088094 0.177495
v -0.822197 0.088094 0.447181
v -0.671733 0.088094 0.681855
v -0.456115 0.088094 0.858548
v 0.351534 0.088094 0.905593
v 0.586208 0.088094 0.755129
v 0.762901 0.088094 0.539511
v 0.864317 0.088094 0.279844
v 0.880527 0.088094 0.001547
v 0.864946 0.117701 -0.292242
v 0.704342 0.117701 -0.542734
v 0.474191 0.117701 -0.731335
v 0.197024 0.117701 -0.839585
v -0.100029 0.117701 -0.856888
v -0.387890 0.117701 -0.781550
v -0.638380 0.117701 -0.620945
v -0.826982 0.117701 -0.390795
v -0.935233 0.117701 -0.113628
v -0.952535 0.117701 0.183425
v -0.877197 0.117701 0.471285
v 0.814731 0.117701 0.569838
v 0.922981 0.117701 0.292671
v 0.940284 0.117701 -0.004382
v 0.898497 0.148860 -0.306947
v 0.731706 0.148860 -0.567086
v 0.492691 0.148860 -0.762952
v 0.204849 0.148860 -0.875372
v -0.103645 0.148860 -0.893341
v -0.402594 0.148860 -0.815101
v -0.662733 0.148860 -0.648310
v -0.858599 0.148860 -0.409295
v -0.971019 0.148860 -0.121453
v -0.988988 0.148860 0.187041
v 0.958767 0.148860 0.300495
v 0.976737 0.148860 -0.007999
v 0.909774 0.180806 -0.311889
v 0.740904 0.180806 -0.575271
v 0.498909 0.180806 -0.773578
v 0.207479 0.180806 -0.887400
v -0.104861 0.180806 -0.905593
v -0.407536 0.180806 -0.826377
v -0.670918 0.180806 -0.657507
v -0.869225 0.180806 -0.415513
v -0.983046 0.180806 -0.124083
v 0.988988 0.180806 -0.009214
v 0.898497 0.212752 -0.306946
v 0.731706 0.212752 -0.567086
v 0.492691 0.212752 -0.762952
v -0.402594 0.212752 -0.815101
v -0.662733 0.212752 -0.648310
v -0.858599 0.212752 -0.409295
v -0.638380 0.243910 -0.620945
v -0.826982 0.243910 -0.390795
v -0.006125 -0.023408 0.089521
vt 0.000000 0.050000
vt 0.050000 0.050000
vt 0.100000 0.050000
vt 0.150000 0.050000
vt 0.200000 0.050000
vt 0.250000 0.050000
vt 0.300000 0.050000
vt 0.350000 0.050000
vt 0.400000 0.050000
vt 0.450000 0.050000
vt 0.500000 0.050000
vt 0.550000 0.050000
vt 0.600000 0.050000
vt 0.650000 0.050000
vt 0.700000 0.050000
vt 0.750000 0.050000
vt 0.800000 0.050000
vt 0.850000 0.050000
vt 0.900000 0.050000
vt 0.950000 0.050000
vt 1.000000 0.050000
vt 0.000000 0.100000
vt 0.050000 0.100000
vt 0.100000 0.100000
vt 0.150000 0.100000
vt 0.200000 0.100000
vt 0.250000 0.100000
vt 0.300000 0.100000
vt 0.350000 0.100000
vt 0.400000 0.100000
vt 0.450000 0.100000
vt 0.500000 0.100000
vt 0.550000 0.100000
vt 0.600000 0.100000
vt 0.650000 0.100000
vt 0.700000 0.100000
vt 0.750000 0.100000
vt 0.800000 0.100000
vt 0.850000 0.100000
vt 0.900000 0.100000
vt 0.950000 0.100000
vt 1.000000 0.100000
vt 0.000000 0.150000
vt 0.050000 0.150000
vt 0.100000 0.150000
vt 0.150000 0.150000
vt 0.200000 0.150000
vt 0.250000 0.150000
vt 0.300000 0.150000
vt 0.350000 0.150000
vt 0.400000 0.150000
vt 0.450000 0.150000
vt 0.500000 0.150000
vt 0.550000 0.150000
vt 0.600000 0.150000
vt 0.650000 0.150000
vt 0.700000 0.150000
vt 0.750000 0.150000
vt 0.800000 0.150000
vt 0.850000 0.150000
vt 0.900000 0.150000
vt 0.950000 0.150000
vt 1.000000 0.150000
vt 0.000000 0.200000
vt 0.050000 0.200000
vt 0.100000 0.200000
vt 0.150000 0.200000
vt 0.200000 0.200000
vt 0.250000 0.200000
vt 0.300000 0.200000
vt 0.350000 0.200000
vt 0.400000 0.200000
vt 0.450000 0.200000
vt 0.500000 0.200000
vt 0.550000 0.200000
vt 0.600000 0.200000
vt 0.650000 0.200000
vt 0.700000 0.200000
vt 0.750000 0.200000
vt 0.800000 0.200000
vt 0.850000 0.200000
vt 0.900000 0.200000
vt 0.950000 0.200000
vt 1.000000 0.200000
vt 0.000000 0.250000
vt 0.050000 0.250000
vt 0.100000 0.250000
vt 0.150000 0.250000
vt 0.200000 0.250000
vt 0.250000 0.250000
vt 0.300000 0.250000
vt 0.350000 0.250000
vt 0.400000 0.250000
vt 0.450000 0.250000
vt 0.500000 0.250000
vt 0.550000 0.250000
vt 0.600000 0.250000
vt 0.650000 0.250000
vt 0.700000 0.250000
vt 0.750000 0.250000
vt 0.800000 0.250000
vt 0.850000 0.250000
vt 0.900000 0.250000
vt 0.950000 0.250000
vt 1.000000 0.250000
vt 0.000000 0.300000
vt 0.050000 0.300000
vt 0.100000 0.300000
vt 0.150000 0.300000
vt 0.200000 0.300000
vt 0.250000 0.300000
vt 0.300000 0.300000
vt 0.350000 0.300000
vt 0.400000 0.300000
vt 0.450000 0.300000
vt 0.500000 0.300000
vt 0.550000 0.300000
vt 0.600000 0.300000
vt 0.650000 0.300000
vt 0.700000 0.300000
vt 0.750000 0.300000
vt 0.800000 0.300000
vt 0.850000 0.300000
vt 0.900000 0.300000
vt 0.950000 0.300000
vt 1.000000 0.300000
vt 0.000000 0.350000
vt 0.050000 0.350000
vt 0.100000 0.350000
vt 0.150000 0.350000
vt 0.200000 0.350000
vt 0.250000 0.350000
vt 0.300000 0.350000
vt 0.350000 0.350000
vt 0.400000 0.350000
vt 0.450000 0.350000
vt 0.500000 0.350000
vt 0.550000 0.350000
vt 0.600000 0.350000
vt 0.750000 0.350000
vt 0.800000 0.350000
vt 0.850000 0.350000
vt 0.900000 0.350000
vt 0.950000 0.350000
vt 1.000000 0.350000
vt 0.000000 0.400000
vt 0.050000 0.400000
vt 0.100000 0.400000
vt 0.150000 0.400000
vt 0.200000 0.400000
vt 0.250000 0.400000
vt 0.300000 0.400000
vt 0.350000 0.400000
vt 0.400000 0.400000
vt 0.450000 0.400000
vt 0.500000 0.400000
vt 0.850000 0.400000
vt 0.900000 0.400000
vt 0.950000 0.400000
vt 1.000000 0.400000
vt 0.000000 0.450000
vt 0.050000 0.450000
vt 0.100000 0.450000
vt 0.150000 0.450000
vt 0.200000 0.450000
vt 0.250000 0.450000
vt 0.300000 0.450000
vt 0.350000 0.450000
vt 0.400000 0.450000
vt 0.450000 0.450000
vt 0.900000 0.450000
vt 0.950000 0.450000
vt 1.000000 0.450000
vt 0.000000 0.500000
vt 0.050000 0.500000
vt 0.100000 0.500000
vt 0.150000 0.500000
vt 0.200000 0.500000
vt 0.250000 0.500000
vt 0.300000 0.500000
vt 0.350000 0.500000
vt 0.400000 0.500000
vt 0.950000 0.500000
vt 1.000000 0.500000
vt 0.000000 0.550000
vt 0.050000 0.550000
vt 0.100000 0.550000
vt 0.250000 0.550000
vt 0.300000 0.550000
vt 0.350000 0.550000
vt 0.300000 0.600000
vt 0.350000 0.600000
vt 0.025000 0.000000
vt 0.075000 0.000000
vt 0.125000 0.000000
vt 0.175000 0.000000
vt 0.225000 0.000000
vt 0.275000 0.000000
vt 0.325000 0.000000
vt 0.375000 0.000000
vt 0.425000 0.000000
vt 0.475000 0.000000
vt 0.525000 0.000000
vt 0.575000 0.000000
vt 0.625000 0.000000
vt 0.675000 0.000000
vt 0.725000 0.000000
vt 0.775000 0.000000
vt 0.825000 0.000000
vt 0.875000 0.000000
vt 0.925000 0.000000
vt 0.975000 0.000000
vn -0.038240 0.999128 0.016759
vn -0.066084 0.997394 0.028962
vn -0.053899 0.997394 0.047966
vn -0.031190 0.999128 0.027756
vn -0.036439 0.997394 0.062274
vn -0.021086 0.999128 0.036036
vn -0.015412 0.997394 0.070486
vn -0.008918 0.999128 0.040788
vn 0.007124 0.997394 0.071799
vn 0.004122 0.999128 0.041548
vn 0.028962 0.997394 0.066084
vn 0.016760 0.999128 0.038240
vn 0.047966 0.997394 0.053899
vn 0.027756 0.999128 0.031189
vn 0.062274 0.997394 0.036439
vn 0.036036 0.999128 0.021086
vn 0.070486 0.997394 0.015412
vn 0.040788 0.999128 0.008918
vn 0.071799 0.997394 -0.007124
vn 0.041548 0.999128 -0.004122
vn 0.066084 0.997394 -0.028963
vn 0.038240 0.999128 -0.016760
vn 0.053899 0.997394 -0.047966
vn 0.031190 0.999128 -0.027756
vn 0.036439 0.997394 -0.062274
vn 0.021086 0.999128 -0.036036
vn 0.015412 0.997394 -0.070487
vn 0.008918 0.999128 -0.040788
vn -0.007124 0.997394 -0.071799
vn -0.004122 0.999128 -0.041548
vn -0.028962 0.997394 -0.066084
vn -0.016760 0.999128 -0.038240
vn -0.047966 0.997394 -0.053899
vn -0.027756 0.999128 -0.031190
vn -0.062274 0.997394 -0.036439
vn -0.036036 0.999128 -0.021086
vn -0.070486 0.997394 -0.015412
vn -0.040788 0.999128 -0.008918
vn -0.071799 0.997394 0.007124
vn -0.041548 0.999128 0.004122
vn -0.099391 0.994095 0.043560
vn -0.081066 0.994095 0.072141
vn -0.054805 0.994095 0.093661
vn -0.023180 0.994095 0.106013
vn 0.010715 0.994095 0.107987
vn 0.043560 0.994095 0.099391
vn 0.072142 0.994095 0.081066
vn 0.093661 0.994095 0.054805
vn 0.106013 0.994095 0.023180
vn 0.107987 0.994095 -0.010715
vn 0.099391 0.994095 -0.043560
vn 0.081065 0.994095 -0.072142
vn 0.054805 0.994095 -0.093662
vn 0.023180 0.994095 -0.106013
vn -0.010714 0.994095 -0.107987
vn -0.043560 0.994095 -0.099391
vn -0.072141 0.994095 -0.081066
vn -0.093661 0.994095 -0.054805
vn -0.106013 0.994095 -0.023180
vn -0.107987 0.994095 0.010715
vn -0.138933 0.988428 0.060890
vn -0.113317 0.988428 0.100842
vn -0.076609 0.988428 0.130924
vn -0.032402 0.988428 0.148189
vn 0.014977 0.988428 0.150949
vn 0.060890 0.988428 0.138933
vn 0.100842 0.988428 0.113317
vn 0.130924 0.988428 0.076609
vn 0.148189 0.988428 0.032402
vn 0.150949 0.988428 -0.014977
vn 0.138933 0.988428 -0.060890
vn 0.113317 0.988428 -0.100842
vn 0.076608 0.988428 -0.130923
vn 0.032402 0.988428 -0.148189
vn -0.014977 0.988428 -0.150949
vn -0.060890 0.988428 -0.138933
vn -0.100842 0.988428 -0.113317
vn -0.130924 0.988428 -0.076609
vn -0.148189 0.988428 -0.032402
vn -0.150949 0.988428 0.014977
vn -0.188175 0.978667 0.082471
vn -0.153480 0.978667 0.136584
vn -0.103761 0.978667 0.177327
vn -0.043886 0.978667 0.200712
vn 0.020286 0.978667 0.204450
vn 0.082471 0.978667 0.188175
vn 0.136584 0.978667 0.153480
vn 0.177327 0.978667 0.103761
vn 0.200712 0.978667 0.043886
vn 0.204450 0.978667 -0.020286
vn 0.188175 0.978667 -0.082472
vn 0.153480 0.978667 -0.136584
vn 0.103761 0.978667 -0.177327
vn 0.043885 0.978667 -0.200712
vn -0.020286 0.978667 -0.204450
vn -0.082471 0.978667 -0.188175
vn -0.136584 0.978667 -0.153480
vn -0.177327 0.978667 -0.103761
vn -0.200712 0.978667 -0.043886
vn -0.204450 0.978667 0.020285
vn -0.253704 0.960870 0.111190
vn -0.206927 0.960870 0.184147
vn -0.139894 0.960870 0.239078
vn -0.059168 0.960870 0.270606
vn 0.027350 0.960870 0.275646
vn 0.111190 0.960870 0.253703
vn 0.184147 0.960870 0.206926
vn 0.239078 0.960870 0.139894
vn 0.270607 0.960870 0.059168
vn 0.275646 0.960870 -0.027350
vn 0.253703 0.960870 -0.111190
vn 0.206927 0.960870 -0.184147
vn 0.148247 0.964691 -0.217705
vn 0.049674 0.972584 -0.227185
vn -0.022961 0.972584 -0.231416
vn -0.121967 0.964691 -0.233444
vn -0.184147 0.960870 -0.206926
vn -0.239078 0.960870 -0.139894
vn -0.270606 0.960870 -0.059168
vn -0.275646 0.960870 0.027350
vn -0.348396 0.924827 0.152691
vn -0.284160 0.924827 0.252878
vn -0.192108 0.924827 0.328312
vn -0.081252 0.924827 0.371609
vn 0.037557 0.924827 0.378529
vn 0.152691 0.924827 0.348396
vn 0.252878 0.924827 0.284160
vn 0.328311 0.924828 0.192108
vn 0.371607 0.924828 0.081252
vn 0.378528 0.924828 -0.037558
vn 0.338351 0.933003 -0.122575
vn 0.236162 0.948714 -0.210164
vn 0.202622 0.947527 -0.247259
vn -0.172543 0.947527 -0.269111
vn -0.210164 0.948714 -0.236162
vn -0.321832 0.933002 -0.161030
vn -0.371608 0.924827 -0.081252
vn -0.378529 0.924827 0.037558
vn -0.497700 0.839473 0.218126
vn -0.405937 0.839473 0.361249
vn -0.274436 0.839472 0.469010
vn -0.116073 0.839473 0.530860
vn 0.053653 0.839473 0.540746
vn 0.218127 0.839473 0.497701
vn 0.361249 0.839473 0.405937
vn 0.469009 0.839473 0.274437
vn 0.530860 0.839473 0.116072
vn 0.509441 0.860306 -0.018510
vn 0.432077 0.894719 -0.113082
vn -0.416025 0.894719 -0.162483
vn -0.503848 0.860306 -0.077532
vn -0.540746 0.839473 0.053653
vn -0.733368 0.599054 0.321412
vn -0.598154 0.599052 0.532305
vn -0.404385 0.599053 0.691092
vn -0.171034 0.599057 0.782226
vn 0.079058 0.599057 0.796794
vn 0.321412 0.599053 0.733368
vn 0.532305 0.599053 0.598153
vn 0.691091 0.599054 0.404385
vn 0.722323 0.661104 0.202958
vn 0.651466 0.757729 0.037946
vn -0.651464 0.757730 -0.037947
vn -0.741001 0.661105 0.117720
vn -0.886200 0.127239 0.445488
vn -0.747028 -0.000000 0.664792
vn -0.545367 0.127241 0.828483
vn -0.199315 0.359612 0.911566
vn 0.092130 0.359614 0.928542
vn 0.445489 0.127243 0.886199
vn 0.664792 0.000000 0.747028
vn 0.828483 0.127242 0.545367
vn 0.870544 0.355745 0.339999
vn -0.904133 0.355741 0.236626
vn -0.786756 -0.355751 0.504436
vn -0.697054 -0.359612 0.620318
vn -0.592371 -0.355744 0.722871
vn 0.504439 -0.355742 0.786759
vn 0.594270 -0.527016 0.607534
vn 0.622056 -0.594302 0.509757
vn 0.504725 -0.757747 0.413608
vn 0.504725 -0.757747 0.413608
vn 0.000000 1.000000 -0.000000
s 1
g pSphere1
usemtl initialShadingGroup
f 1/1/1 21/22/2 22/23/3 2/2/4
f 2/2/4 22/23/3 23/24/5 3/3/6
f 3/3/6 23/24/5 24/25/7 4/4/8
f 4/4/8 24/25/7 25/26/9 5/5/10
f 5/5/10 25/26/9 26/27/11 6/6/12
f 6/6/12 26/27/11 27/28/13 7/7/14
f 7/7/14 27/28/13 28/29/15 8/8/16
f 8/8/16 28/29/15 29/30/17 9/9/18
f 9/9/18 29/30/17 30/31/19 10/10/20
f 10/10/20 30/31/19 31/32/21 11/11/22
f 11/11/22 31/32/21 32/33/23 12/12/24
f 12/12/24 32/33/23 33/34/25 13/13/26
f 13/13/26 33/34/25 34/35/27 14/14/28
f 14/14/28 34/35/27 35/36/29 15/15/30
f 15/15/30 35/36/29 36/37/31 16/16/32
f 16/16/32 36/37/31 37/38/33 17/17/34
f 17/17/34 37/38/33 38/39/35 18/18/36
f 18/18/36 38/39/35 39/40/37 19/19/38
f 19/19/38 39/40/37 40/41/39 20/20/40
f 20/20/40 40/41/39 21/42/2 1/21/1
f 21/22/2 41/43/41 42/44/42 22/23/3
f 22/23/3 42/44/42 43/45/43 23/24/5
f 23/24/5 43/45/43 44/46/44 24/25/7
f 24/25/7 44/46/44 45/47/45 25/26/9
f 25/26/9 45/47/45 46/48/46 26/27/11
f 26/27/11 46/48/46 47/49/47 27/28/13
f 27/28/13 47/49/47 48/50/48 28/29/15
f 28/29/15 48/50/48 49/51/49 29/30/17
f 29/30/17 49/51/49 50/52/50 30/31/19
f 30/31/19 50/52/50 51/53/51 31/32/21
f 31/32/21 51/53/51 52/54/52 32/33/23
f 32/33/23 52/54/52 53/55/53 33/34/25
f 33/34/25 53/55/53 54/56/54 34/35/27
f 34/35/27 54/56/54 55/57/55 35/36/29
f 35/36/29 55/57/55 56/58/56 36/37/31
f 36/37/31 56/58/56 57/59/57 37/38/33
f 37/38/33 57/59/57 58/60/58 38/39/35
f 38/39/35 58/60/58 59/61/59 39/40/37
f 39/40/37 59/61/59 60/62/60 40/41/39
f 40/41/39 60/62/60 41/63/41 21/42/2
f 41/43/41 61/64/61 62/65/62 42/44/42
f 42/44/42 62/65/62 63/66/63 43/45/43
f 43/45/43 63/66/63 64/67/64 44/46/44
f 44/46/44 64/67/64 65/68/65 45/47/45
f 45/47/45 65/68/65 66/69/66 46/48/46
f 46/48/46 66/69/66 67/70/67 47/49/47
f 47/49/47 67/70/67 68/71/68 48/50/48
f 48/50/48 68/71/68 69/72/69 49/51/49
f 49/51/49 69/72/69 70/73/70 50/52/50
f 50/52/50 70/73/70 71/74/71 51/53/51
f 51/53/51 71/74/71 72/75/72 52/54/52
f 52/54/52 72/75/72 73/76/73 53/55/53
f 53/55/53 73/76/73 74/77/74 54/56/54
f 54/56/54 74/77/74 75/78/75 55/57/55
f 55/57/55 75/78/75 76/79/76 56/58/56
f 56/58/56 76/79/76 77/80/77 57/59/57
f 57/59/57 77/80/77 78/81/78 58/60/58
f 58/60/58 78/81/78 79/82/79 59/61/59
f 59/61/59 79/82/79 80/83/80 60/62/60
f 60/62/60 80/83/80 61/84/61 41/63/41
f 61/64/61 81/85/81 82/86/82 62/65/62
f 62/65/62 82/86/82 83/87/83 63/66/63
f 63/66/63 83/87/83 84/88/84 64/67/64
f 64/67/64 84/88/84 85/89/85 65/68/65
f 65/68/65 85/89/85 86/90/86 66/69/66
f 66/69/66 86/90/86 87/91/87 67/70/67
f 67/70/67 87/91/87 88/92/88 68/71/68
f 68/71/68 88/92/88 89/93/89 69/72/69
f 69/72/69 89/93/89 90/94/90 70/73/70
f 70/73/70 90/94/90 91/95/91 71/74/71
f 71/74/71 91/95/91 92/96/92 72/75/72
f 72/75/72 92/96/92 93/97/93 73/76/73
f 73/76/73 93/97/93 94/98/94 74/77/74
f 74/77/74 94/98/94 95/99/95 75/78/75
f 75/78/75 95/99/95 96/100/96 76/79/76
f 76/79/76 96/100/96 97/101/97 77/80/77
f 77/80/77 97/101/97 98/102/98 78/81/78
f 78/81/78 98/102/98 99/103/99 79/82/79
f 79/82/79 99/103/99 100/104/100 80/83/80
f 80/83/80 100/104/100 81/105/81 61/84/61
f 81/85/81 101/106/101 102/107/102 82/86/82
f 82/86/82 102/107/102 103/108/103 83/87/83
f 83/87/83 103/108/103 104/109/104 84/88/84
f 84/88/84 104/109/104 105/110/105 85/89/85
f 85/89/85 105/110/105 106/111/106 86/90/86
f 86/90/86 106/111/106 107/112/107 87/91/87
f 87/91/87 107/112/107 108/113/108 88/92/88
f 88/92/88 108/113/108 109/114/109 89/93/89
f 89/93/89 109/114/109 110/115/110 90/94/90
f 90/94/90 110/115/110 111/116/111 91/95/91
f 91/95/91 111/116/111 112/117/112 92/96/92
f 92/96/92 112/117/112 113/118/113 93/97/93
f 93/97/93 113/118/113 114/119/114 94/98/94
f 94/98/94 114/119/114 115/120/115 95/99/95
f 95/99/95 115/120/115 116/121/116 96/100/96
f 96/100/96 116/121/116 117/122/117 97/101/97
f 97/101/97 117/122/117 118/123/118 98/102/98
f 98/102/98 118/123/118 119/124/119 99/103/99
f 99/103/99 119/124/119 120/125/120 100/104/100
f 100/104/100 120/125/120 101/126/101 81/105/81
f 101/106/101 121/127/121 122/128/122 102/107/102
f 102/107/102 122/128/122 123/129/123 103/108/103
f 103/108/103 123/129/123 124/130/124 104/109/104
f 104/109/104 124/130/124 125/131/125 105/110/105
f 105/110/105 125/131/125 126/132/126 106/111/106
f 106/111/106 126/132/126 127/133/127 107/112/107
f 107/112/107 127/133/127 128/134/128 108/113/108
f 108/113/108 128/134/128 129/135/129 109/114/109
f 109/114/109 129/135/129 130/136/130 110/115/110
f 110/115/110 130/136/130 131/137/131 111/116/111
f 111/116/111 131/137/131 132/138/132 112/117/112
f 112/117/112 132/138/132 133/139/133 113/118/113
f 116/121/116 134/140/134 135/141/135 117/122/117
f 117/122/117 135/141/135 136/142/136 118/123/118
f 118/123/118 136/142/136 137/143/137 119/124/119
f 119/124/119 137/143/137 138/144/138 120/125/120
f 120/125/120 138/144/138 121/145/121 101/126/101
f 121/127/121 139/146/139 140/147/140 122/128/122
f 122/128/122 140/147/140 141/148/141 123/129/123
f 123/129/123 141/148/141 142/149/142 124/130/124
f 124/130/124 142/149/142 143/150/143 125/131/125
f 125/131/125 143/150/143 144/151/144 126/132/126
f 126/132/126 144/151/144 145/152/145 127/133/127
f 127/133/127 145/152/145 146/153/146 128/134/128
f 128/134/128 146/153/146 147/154/147 129/135/129
f 129/135/129 147/154/147 148/155/148 130/136/130
f 130/136/130 148/155/148 149/156/149 131/137/131
f 136/142/136 150/157/150 151/158/151 137/143/137
f 137/143/137 151/158/151 152/159/152 138/144/138
f 138/144/138 152/159/152 139/160/139 121/145/121
f 139/146/139 153/161/153 154/162/154 140/147/140
f 140/147/140 154/162/154 155/163/155 141/148/141
f 141/148/141 155/163/155 156/164/156 142/149/142
f 142/149/142 156/164/156 157/165/157 143/150/143
f 143/150/143 157/165/157 158/166/158 144/151/144
f 144/151/144 158/166/158 159/167/159 145/152/145
f 145/152/145 159/167/159 160/168/160 146/153/146
f 146/153/146 160/168/160 161/169/161 147/154/147
f 147/154/147 161/169/161 162/170/162 148/155/148
f 151/158/151 163/171/163 164/172/164 152/159/152
f 152/159/152 164/172/164 153/173/153 139/160/139
f 153/161/153 165/174/165 166/175/166 154/162/154
f 154/162/154 166/175/166 167/176/167 155/163/155
f 155/163/155 167/176/167 168/177/168 156/164/156
f 156/164/156 168/177/168 169/178/169 157/165/157
f 157/165/157 169/178/169 170/179/170 158/166/158
f 158/166/158 170/179/170 171/180/171 159/167/159
f 159/167/159 171/180/171 172/181/172 160/168/160
f 160/168/160 172/181/172 173/182/173 161/169/161
f 164/172/164 174/183/174 165/184/165 153/173/153
f 165/174/165 175/185/175 176/186/176 166/175/166
f 166/175/166 176/186/176 177/187/177 167/176/167
f 170/179/170 178/188/178 179/189/179 171/180/171
f 171/180/171 179/189/179 180/190/180 172/181/172
f 179/189/179 181/191/181 182/192/182 180/190/180
f 2/2/4 183/193/183 1/1/1
f 3/3/6 183/194/183 2/2/4
f 4/4/8 183/195/183 3/3/6
f 5/5/10 183/196/183 4/4/8
f 6/6/12 183/197/183 5/5/10
f 7/7/14 183/198/183 6/6/12
f 8/8/16 183/199/183 7/7/14
f 9/9/18 183/200/183 8/8/16
f 10/10/20 183/201/183 9/9/18
f 11/11/22 183/202/183 10/10/20
f 12/12/24 183/203/183 11/11/22
f 13/13/26 183/204/183 12/12/24
f 14/14/28 183/205/183 13/13/26
f 15/15/30 183/206/183 14/14/28
f 16/16/32 183/207/183 15/15/30
f 17/17/34 183/208/183 16/16/32
f 18/18/36 183/209/183 17/17/34
f 19/19/38 183/210/183 18/18/36
f 20/20/40 183/211/183 19/19/38
f 1/21/1 183/212/183 20/20/40
